<?xml version="1.0" standalone="no"?>
<!DOCTYPE svg PUBLIC "-//W3C//DTD SVG 20010904//EN"
 "http://www.w3.org/TR/2001/REC-SVG-20010904/DTD/svg10.dtd">
<svg version="1.0" xmlns="http://www.w3.org/2000/svg"
 width="17.000000pt" height="13.000000pt" viewBox="0 0 17.000000 13.000000"
 preserveAspectRatio="xMidYMid meet">

<g transform="translate(0.000000,13.000000) scale(0.100000,-0.100000)"
fill="#000000" stroke="none">
<path d="M0 100 c0 -28 2 -30 40 -30 38 0 40 2 40 30 0 28 -2 30 -40 30 -38 0
-40 -2 -40 -30z"/>
<path d="M90 77 c0 -31 1 -32 40 -32 32 0 40 3 40 17 0 10 -7 18 -15 18 -8 0
-15 7 -15 15 0 9 -9 15 -25 15 -22 0 -25 -4 -25 -33z"/>
<path d="M0 52 c0 -4 18 -7 40 -7 22 0 40 3 40 7 0 5 -18 8 -40 8 -22 0 -40
-3 -40 -8z"/>
<path d="M30 30 c0 -5 5 -10 10 -10 6 0 10 5 10 10 0 6 -4 10 -10 10 -5 0 -10
-4 -10 -10z"/>
<path d="M120 30 c0 -5 5 -10 10 -10 6 0 10 5 10 10 0 6 -4 10 -10 10 -5 0
-10 -4 -10 -10z"/>
<path d="M43 3 c26 -2 67 -2 90 0 23 2 2 3 -48 3 -50 0 -68 -1 -42 -3z"/>
</g>
</svg>
