<?xml version="1.0" standalone="no"?><svg viewBox="0 0 22.667 17.333" xmlns="http://www.w3.org/2000/svg" xmlns:xlink="http://www.w3.org/1999/xlink"><style>:root>svg{display:none}:root>svg:target{display:block}</style><svg version="1.0" viewBox="0 0 17 13" id="ico-delivery" xmlns="http://www.w3.org/2000/svg"><path d="M0 3c0 2.8.2 3 4 3s4-.2 4-3-.2-3-4-3-4 .2-4 3zM9 5.3c0 3.1.1 3.2 4 3.2 3.2 0 4-.3 4-1.7 0-1-.7-1.8-1.5-1.8S14 4.3 14 3.5c0-.9-.9-1.5-2.5-1.5C9.3 2 9 2.4 9 5.3zM0 7.8c0 .4 1.8.7 4 .7s4-.3 4-.7C8 7.3 6.2 7 4 7s-4 .3-4 .8zM3 10c0 .5.5 1 1 1 .6 0 1-.5 1-1 0-.6-.4-1-1-1-.5 0-1 .4-1 1zM12 10c0 .5.5 1 1 1 .6 0 1-.5 1-1 0-.6-.4-1-1-1-.5 0-1 .4-1 1zM4.3 12.7c2.6.2 6.7.2 9 0s.2-.3-4.8-.3-6.8.1-4.2.3z"/></svg><svg version="1.0" viewBox="0 0 5 12" id="ico-fb" xmlns="http://www.w3.org/2000/svg"/><svg version="1.0" viewBox="0 0 13 11" id="ico-google" xmlns="http://www.w3.org/2000/svg"/><svg version="1.0" viewBox="0 0 14 10" id="ico-stock" xmlns="http://www.w3.org/2000/svg"><path d="M9 3.5L5.6 7 3.3 4.8C-.1 1.6-.8 3.5 2.5 7l2.9 3 4.3-4.2c2.4-2.3 4.3-4.6 4.3-5 0-1.6-1.7-.7-5 2.7z"/></svg><svg version="1.0" viewBox="0 0 11 10" id="ico-twitter" xmlns="http://www.w3.org/2000/svg"/><svg version="1.0" viewBox="0 0 7 10" id="ico-vk" xmlns="http://www.w3.org/2000/svg"/></svg>